{
  "accessors": [
    {
      "bufferView": 2,
      "componentType": 5126,
      "count": 1953,
      "max": [
        -0.0022780150175094604,
        0.10010097920894623,
        0.026410087943077087
      ],
      "min": [
        -0.39927971363067627,
        0.00475648045539856,
        -0.026489105075597763
      ],
      "type": "VEC3"
    },
    {
      "bufferView": 2,
      "byteOffset": 23436,
      "componentType": 5126,
      "count": 1953,
      "type": "VEC3"
    },
    {
      "bufferView": 1,
      "componentType": 5126,
      "count": 1953,
      "type": "VEC2"
    },
    {
      "bufferView": 0,
      "componentType": 5125,
      "count": 11832,
      "type": "SCALAR"
    },
    {
      "bufferView": 2,
      "byteOffset": 46872,
      "componentType": 5126,
      "count": 235,
      "max": [
        -0.001528903841972351,
        0.09789928793907166,
        0.022172711789608
      ],
      "min": [
        -0.40119463205337524,
        0.007309377193450928,
        -0.02199522964656353
      ],
      "type": "VEC3"
    },
    {
      "bufferView": 2,
      "byteOffset": 49692,
      "componentType": 5126,
      "count": 235,
      "type": "VEC3"
    },
    {
      "bufferView": 3,
      "componentType": 5126,
      "count": 235,
      "type": "VEC4"
    },
    {
      "bufferView": 1,
      "byteOffset": 15624,
      "componentType": 5126,
      "count": 235,
      "type": "VEC2"
    },
    {
      "bufferView": 0,
      "byteOffset": 47328,
      "componentType": 5125,
      "count": 996,
      "type": "SCALAR"
    },
    {
      "bufferView": 2,
      "byteOffset": 52512,
      "componentType": 5126,
      "count": 114,
      "max": [
        0.003588959574699402,
        0.10569728165864944,
        0.028333423659205437
      ],
      "min": [
        -0.02843976952135563,
        0.04876616224646568,
        -0.03185475617647171
      ],
      "type": "VEC3"
    },
    {
      "bufferView": 2,
      "byteOffset": 53880,
      "componentType": 5126,
      "count": 114,
      "type": "VEC3"
    },
    {
      "bufferView": 3,
      "byteOffset": 3760,
      "componentType": 5126,
      "count": 114,
      "type": "VEC4"
    },
    {
      "bufferView": 1,
      "byteOffset": 17504,
      "componentType": 5126,
      "count": 114,
      "type": "VEC2"
    },
    {
      "bufferView": 0,
      "byteOffset": 51312,
      "componentType": 5125,
      "count": 294,
      "type": "SCALAR"
    },
    {
      "bufferView": 2,
      "byteOffset": 55248,
      "componentType": 5126,
      "count": 74,
      "max": [
        0.00046062562614679337,
        0.11152888834476471,
        0.03591503947973251
      ],
      "min": [
        -0.017405221238732338,
        0.04216054826974869,
        -0.039758890867233276
      ],
      "type": "VEC3"
    },
    {
      "bufferView": 2,
      "byteOffset": 56136,
      "componentType": 5126,
      "count": 74,
      "type": "VEC3"
    },
    {
      "bufferView": 3,
      "byteOffset": 5584,
      "componentType": 5126,
      "count": 74,
      "type": "VEC4"
    },
    {
      "bufferView": 1,
      "byteOffset": 18416,
      "componentType": 5126,
      "count": 74,
      "type": "VEC2"
    },
    {
      "bufferView": 0,
      "byteOffset": 52488,
      "componentType": 5125,
      "count": 276,
      "type": "SCALAR"
    },
    {
      "bufferView": 2,
      "byteOffset": 57024,
      "componentType": 5126,
      "count": 36,
      "max": [
        0.026743927970528603,
        0.10453882813453674,
        0.00628566462546587
      ],
      "min": [
        -0.0037554437294602394,
        0.054937005043029785,
        -0.009609443135559559
      ],
      "type": "VEC3"
    },
    {
      "bufferView": 2,
      "byteOffset": 57456,
      "componentType": 5126,
      "count": 36,
      "type": "VEC3"
    },
    {
      "bufferView": 1,
      "byteOffset": 19008,
      "componentType": 5126,
      "count": 36,
      "type": "VEC2"
    },
    {
      "bufferView": 0,
      "byteOffset": 53592,
      "componentType": 5125,
      "count": 60,
      "type": "SCALAR"
    },
    {
      "bufferView": 2,
      "byteOffset": 57888,
      "componentType": 5126,
      "count": 136,
      "max": [
        0.05868472158908844,
        0.10313943773508072,
        0.004447159357368946
      ],
      "min": [
        0.00593738816678524,
        0.05630913004279137,
        -0.007814841344952583
      ],
      "type": "VEC3"
    },
    {
      "bufferView": 2,
      "byteOffset": 59520,
      "componentType": 5126,
      "count": 136,
      "type": "VEC3"
    },
    {
      "bufferView": 3,
      "byteOffset": 6768,
      "componentType": 5126,
      "count": 136,
      "type": "VEC4"
    },
    {
      "bufferView": 1,
      "byteOffset": 19296,
      "componentType": 5126,
      "count": 136,
      "type": "VEC2"
    },
    {
      "bufferView": 0,
      "byteOffset": 53832,
      "componentType": 5125,
      "count": 444,
      "type": "SCALAR"
    },
    {
      "bufferView": 2,
      "byteOffset": 61152,
      "componentType": 5126,
      "count": 957,
      "max": [
        0.8789438009262085,
        0.11978965997695923,
        0.0039375536143779755
      ],
      "min": [
        0.054745227098464966,
        0.05690113827586174,
        -0.0059672510251402855
      ],
      "type": "VEC3"
    },
    {
      "bufferView": 2,
      "byteOffset": 72636,
      "componentType": 5126,
      "count": 957,
      "type": "VEC3"
    },
    {
      "bufferView": 3,
      "byteOffset": 8944,
      "componentType": 5126,
      "count": 957,
      "type": "VEC4"
    },
    {
      "bufferView": 1,
      "byteOffset": 20384,
      "componentType": 5126,
      "count": 957,
      "type": "VEC2"
    },
    {
      "bufferView": 0,
      "byteOffset": 55608,
      "componentType": 5125,
      "count": 4674,
      "type": "SCALAR"
    },
    {
      "bufferView": 2,
      "byteOffset": 84120,
      "componentType": 5126,
      "count": 254,
      "max": [
        1.075311303138733,
        0.12693461775779724,
        0.006500943563878536
      ],
      "min": [
        0.19927823543548584,
        0.015130152925848961,
        -0.007730291225016117
      ],
      "type": "VEC3"
    },
    {
      "bufferView": 2,
      "byteOffset": 87168,
      "componentType": 5126,
      "count": 254,
      "type": "VEC3"
    },
    {
      "bufferView": 1,
      "byteOffset": 28040,
      "componentType": 5126,
      "count": 254,
      "type": "VEC2"
    },
    {
      "bufferView": 0,
      "byteOffset": 74304,
      "componentType": 5125,
      "count": 1047,
      "type": "SCALAR"
    },
    {
      "bufferView": 2,
      "byteOffset": 90216,
      "componentType": 5126,
      "count": 58,
      "max": [
        1.0990747213363647,
        0.06841857731342316,
        0.007484140805900097
      ],
      "min": [
        1.071070909500122,
        0.011597668752074242,
        -0.008467779494822025
      ],
      "type": "VEC3"
    },
    {
      "bufferView": 2,
      "byteOffset": 90912,
      "componentType": 5126,
      "count": 58,
      "type": "VEC3"
    },
    {
      "bufferView": 1,
      "byteOffset": 30072,
      "componentType": 5126,
      "count": 58,
      "type": "VEC2"
    },
    {
      "bufferView": 0,
      "byteOffset": 78492,
      "componentType": 5125,
      "count": 180,
      "type": "SCALAR"
    },
    {
      "bufferView": 2,
      "byteOffset": 91608,
      "componentType": 5126,
      "count": 389,
      "max": [
        -0.21976834535598755,
        0.06336568295955658,
        -0.021103477105498314
      ],
      "min": [
        -0.2357504963874817,
        0.04737820476293564,
        -0.022691061720252037
      ],
      "type": "VEC3"
    },
    {
      "bufferView": 2,
      "byteOffset": 96276,
      "componentType": 5126,
      "count": 389,
      "type": "VEC3"
    },
    {
      "bufferView": 1,
      "byteOffset": 30536,
      "componentType": 5126,
      "count": 389,
      "type": "VEC2"
    },
    {
      "bufferView": 0,
      "byteOffset": 79212,
      "componentType": 5125,
      "count": 1896,
      "type": "SCALAR"
    },
    {
      "bufferView": 2,
      "byteOffset": 100944,
      "componentType": 5126,
      "count": 389,
      "max": [
        -0.1834312528371811,
        0.0675826445221901,
        -0.021349385380744934
      ],
      "min": [
        -0.19941340386867523,
        0.05159516632556915,
        -0.022936969995498657
      ],
      "type": "VEC3"
    },
    {
      "bufferView": 2,
      "byteOffset": 105612,
      "componentType": 5126,
      "count": 389,
      "type": "VEC3"
    },
    {
      "bufferView": 1,
      "byteOffset": 33648,
      "componentType": 5126,
      "count": 389,
      "type": "VEC2"
    },
    {
      "bufferView": 0,
      "byteOffset": 86796,
      "componentType": 5125,
      "count": 1896,
      "type": "SCALAR"
    },
    {
      "bufferView": 2,
      "byteOffset": 110280,
      "componentType": 5126,
      "count": 216,
      "max": [
        -0.38033318519592285,
        0.06630490720272064,
        0.033711012452840805
      ],
      "min": [
        -0.4157675802707672,
        -0.0013538636267185211,
        -0.03320746868848801
      ],
      "type": "VEC3"
    },
    {
      "bufferView": 2,
      "byteOffset": 112872,
      "componentType": 5126,
      "count": 216,
      "type": "VEC3"
    },
    {
      "bufferView": 1,
      "byteOffset": 36760,
      "componentType": 5126,
      "count": 216,
      "type": "VEC2"
    },
    {
      "bufferView": 0,
      "byteOffset": 94380,
      "componentType": 5125,
      "count": 1080,
      "type": "SCALAR"
    },
    {
      "bufferView": 2,
      "byteOffset": 115464,
      "componentType": 5126,
      "count": 120,
      "max": [
        -0.38033318519592285,
        0.06380517780780792,
        0.030337251722812653
      ],
      "min": [
        -0.41872256994247437,
        0.002711888402700424,
        -0.02984827384352684
      ],
      "type": "VEC3"
    },
    {
      "bufferView": 2,
      "byteOffset": 116904,
      "componentType": 5126,
      "count": 120,
      "type": "VEC3"
    },
    {
      "bufferView": 3,
      "byteOffset": 24256,
      "componentType": 5126,
      "count": 120,
      "type": "VEC4"
    },
    {
      "bufferView": 1,
      "byteOffset": 38488,
      "componentType": 5126,
      "count": 120,
      "type": "VEC2"
    },
    {
      "bufferView": 0,
      "byteOffset": 98700,
      "componentType": 5125,
      "count": 492,
      "type": "SCALAR"
    },
    {
      "bufferView": 2,
      "byteOffset": 118344,
      "componentType": 5126,
      "count": 1117,
      "max": [
        0.0022625974379479885,
        0.15262362360954285,
        0.06374870240688324
      ],
      "min": [
        -0.019974378868937492,
        -0.00025471302797086537,
        -0.07535435259342194
      ],
      "type": "VEC3"
    },
    {
      "bufferView": 2,
      "byteOffset": 131748,
      "componentType": 5126,
      "count": 1117,
      "type": "VEC3"
    },
    {
      "bufferView": 1,
      "byteOffset": 39448,
      "componentType": 5126,
      "count": 1117,
      "type": "VEC2"
    },
    {
      "bufferView": 0,
      "byteOffset": 100668,
      "componentType": 5125,
      "count": 4896,
      "type": "SCALAR"
    }
  ],
  "asset": {
    "generator": "fab-model-conversion",
    "version": "2.0"
  },
  "bufferViews": [
    {
      "buffer": 0,
      "byteLength": 120252,
      "target": 34963
    },
    {
      "buffer": 0,
      "byteLength": 48384,
      "byteOffset": 120252,
      "byteStride": 8,
      "target": 34962
    },
    {
      "buffer": 0,
      "byteLength": 145152,
      "byteOffset": 168636,
      "byteStride": 12,
      "target": 34962
    },
    {
      "buffer": 0,
      "byteLength": 26176,
      "byteOffset": 313788,
      "byteStride": 16,
      "target": 34962
    }
  ],
  "buffers": [
    {
      "byteLength": 339964,
      "uri": "scene.bin"
    }
  ],
  "extensionsUsed": [
    "KHR_texture_transform",
    "KHR_materials_specular",
    "KHR_materials_clearcoat"
  ],
  "images": [
    {
      "uri": "textures/Dark_Blue_baseColor.jpeg"
    },
    {
      "uri": "textures/Dark_Blue_normal.jpeg"
    },
    {
      "uri": "textures/Saber_normal.jpeg"
    }
  ],
  "materials": [
    {
      "doubleSided": true,
      "name": "Cloth",
      "pbrMetallicRoughness": {
        "baseColorFactor": [
          0.16460807970228097,
          0.026169834164843617,
          0.026169834164843617,
          1.0
        ]
      }
    },
    {
      "doubleSided": true,
      "extensions": {
        "KHR_materials_specular": {
          "specularColorFactor": [
            1.0,
            1.0,
            1.0
          ],
          "specularFactor": 0.5409540295741854
        }
      },
      "name": "Dark_Blue",
      "normalTexture": {
        "extensions": {
          "KHR_texture_transform": {
            "offset": [
              -1,
              1
            ],
            "rotation": 1.5708
          }
        },
        "index": 1
      },
      "pbrMetallicRoughness": {
        "baseColorTexture": {
          "extensions": {
            "KHR_texture_transform": {
              "offset": [
                -1,
                1
              ],
              "rotation": -3.889590904444506,
              "scale": [
                -128.00000000000003,
                -128.00000000000003
              ]
            }
          },
          "index": 0
        },
        "metallicFactor": 0.0,
        "roughnessFactor": 0.13257183259987076
      }
    },
    {
      "doubleSided": true,
      "name": "Gold",
      "pbrMetallicRoughness": {
        "baseColorFactor": [
          0.8,
          0.579525,
          0.233951,
          1.0
        ],
        "roughnessFactor": 0.3
      }
    },
    {
      "doubleSided": true,
      "extensions": {
        "KHR_materials_specular": {
          "specularColorFactor": [
            1.0,
            1.0,
            1.0
          ],
          "specularFactor": 1.0
        }
      },
      "name": "Saber",
      "normalTexture": {
        "index": 2,
        "scale": 0.02
      },
      "pbrMetallicRoughness": {
        "baseColorFactor": [
          0.8,
          0.8,
          0.8,
          1.0
        ],
        "roughnessFactor": 0.0
      }
    },
    {
      "doubleSided": true,
      "extensions": {
        "KHR_materials_clearcoat": {
          "clearcoatFactor": 1,
          "clearcoatRoughnessFactor": 0.024186
        }
      },
      "name": "Case",
      "pbrMetallicRoughness": {
        "baseColorFactor": [
          0.0114645,
          0.011388,
          0.0214979,
          1.0
        ],
        "metallicFactor": 0.0,
        "roughnessFactor": 0.229616
      }
    }
  ],
  "meshes": [
    {
      "name": "Object_0",
      "primitives": [
        {
          "attributes": {
            "NORMAL": 1,
            "POSITION": 0,
            "TEXCOORD_0": 2
          },
          "indices": 3,
          "material": 0,
          "mode": 4
        }
      ]
    },
    {
      "name": "Object_1",
      "primitives": [
        {
          "attributes": {
            "NORMAL": 5,
            "POSITION": 4,
            "TANGENT": 6,
            "TEXCOORD_0": 7
          },
          "indices": 8,
          "material": 1,
          "mode": 4
        }
      ]
    },
    {
      "name": "Object_2",
      "primitives": [
        {
          "attributes": {
            "NORMAL": 10,
            "POSITION": 9,
            "TANGENT": 11,
            "TEXCOORD_0": 12
          },
          "indices": 13,
          "material": 1,
          "mode": 4
        }
      ]
    },
    {
      "name": "Object_3",
      "primitives": [
        {
          "attributes": {
            "NORMAL": 15,
            "POSITION": 14,
            "TANGENT": 16,
            "TEXCOORD_0": 17
          },
          "indices": 18,
          "material": 1,
          "mode": 4
        }
      ]
    },
    {
      "name": "Object_4",
      "primitives": [
        {
          "attributes": {
            "NORMAL": 20,
            "POSITION": 19,
            "TEXCOORD_0": 21
          },
          "indices": 22,
          "material": 2,
          "mode": 4
        }
      ]
    },
    {
      "name": "Object_5",
      "primitives": [
        {
          "attributes": {
            "NORMAL": 24,
            "POSITION": 23,
            "TANGENT": 25,
            "TEXCOORD_0": 26
          },
          "indices": 27,
          "material": 3,
          "mode": 4
        }
      ]
    },
    {
      "name": "Object_6",
      "primitives": [
        {
          "attributes": {
            "NORMAL": 29,
            "POSITION": 28,
            "TANGENT": 30,
            "TEXCOORD_0": 31
          },
          "indices": 32,
          "material": 3,
          "mode": 4
        }
      ]
    },
    {
      "name": "Object_7",
      "primitives": [
        {
          "attributes": {
            "NORMAL": 34,
            "POSITION": 33,
            "TEXCOORD_0": 35
          },
          "indices": 36,
          "material": 4,
          "mode": 4
        }
      ]
    },
    {
      "name": "Object_8",
      "primitives": [
        {
          "attributes": {
            "NORMAL": 38,
            "POSITION": 37,
            "TEXCOORD_0": 39
          },
          "indices": 40,
          "material": 2,
          "mode": 4
        }
      ]
    },
    {
      "name": "Object_9",
      "primitives": [
        {
          "attributes": {
            "NORMAL": 42,
            "POSITION": 41,
            "TEXCOORD_0": 43
          },
          "indices": 44,
          "material": 2,
          "mode": 4
        }
      ]
    },
    {
      "name": "Object_10",
      "primitives": [
        {
          "attributes": {
            "NORMAL": 46,
            "POSITION": 45,
            "TEXCOORD_0": 47
          },
          "indices": 48,
          "material": 2,
          "mode": 4
        }
      ]
    },
    {
      "name": "Object_11",
      "primitives": [
        {
          "attributes": {
            "NORMAL": 50,
            "POSITION": 49,
            "TEXCOORD_0": 51
          },
          "indices": 52,
          "material": 2,
          "mode": 4
        }
      ]
    },
    {
      "name": "Object_12",
      "primitives": [
        {
          "attributes": {
            "NORMAL": 54,
            "POSITION": 53,
            "TANGENT": 55,
            "TEXCOORD_0": 56
          },
          "indices": 57,
          "material": 1,
          "mode": 4
        }
      ]
    },
    {
      "name": "Object_13",
      "primitives": [
        {
          "attributes": {
            "NORMAL": 59,
            "POSITION": 58,
            "TEXCOORD_0": 60
          },
          "indices": 61,
          "material": 2,
          "mode": 4
        }
      ]
    }
  ],
  "nodes": [
    {
      "children": [
        1
      ],
      "matrix": [
        1.0,
        0.0,
        0.0,
        0.0,
        0.0,
        2.220446049250313e-16,
        -1.0,
        0.0,
        0.0,
        1.0,
        2.220446049250313e-16,
        0.0,
        0.0,
        0.0,
        0.0,
        1.0
      ],
      "name": "FAB converted model"
    },
    {
      "children": [
        2
      ],
      "name": "root"
    },
    {
      "children": [
        3
      ],
      "matrix": [
        1.0,
        0.0,
        0.0,
        0.0,
        0.0,
        2.220446049250313e-16,
        1.0,
        0.0,
        0.0,
        -1.0,
        2.220446049250313e-16,
        0.0,
        0.0,
        0.0,
        0.0,
        1.0
      ],
      "name": "GLTF_SceneRootNode"
    },
    {
      "children": [
        4,
        5
      ],
      "name": "Entrelazado inf_13"
    },
    {
      "mesh": 0,
      "name": "Object_4"
    },
    {
      "children": [
        6,
        7,
        20,
        22,
        24,
        27
      ],
      "name": "Manga_12"
    },
    {
      "mesh": 1,
      "name": "Object_6"
    },
    {
      "children": [
        8,
        9,
        11
      ],
      "name": "Base_7"
    },
    {
      "mesh": 2,
      "name": "Object_8"
    },
    {
      "children": [
        10
      ],
      "name": "Base.001_0"
    },
    {
      "mesh": 3,
      "name": "Object_10"
    },
    {
      "children": [
        12,
        13
      ],
      "name": "Cube_6"
    },
    {
      "mesh": 4,
      "name": "Object_12"
    },
    {
      "children": [
        14,
        15
      ],
      "name": "Cube.001_5"
    },
    {
      "mesh": 5,
      "name": "Object_14"
    },
    {
      "children": [
        16,
        17
      ],
      "name": "Cube.011_4"
    },
    {
      "mesh": 6,
      "name": "Object_16"
    },
    {
      "children": [
        18,
        19
      ],
      "name": "Cube.002_3"
    },
    {
      "mesh": 7,
      "name": "Object_18"
    },
    {
      "mesh": 8,
      "name": "Object_19"
    },
    {
      "children": [
        21
      ],
      "name": "Circle.001_8"
    },
    {
      "mesh": 9,
      "name": "Object_21"
    },
    {
      "children": [
        23
      ],
      "name": "Circle.006_9"
    },
    {
      "mesh": 10,
      "name": "Object_23"
    },
    {
      "children": [
        25,
        26
      ],
      "name": "Cola_10"
    },
    {
      "mesh": 11,
      "name": "Object_25"
    },
    {
      "mesh": 12,
      "name": "Object_26"
    },
    {
      "children": [
        28
      ],
      "name": "Guard_11"
    },
    {
      "mesh": 13,
      "name": "Object_28"
    }
  ],
  "samplers": [
    {
      "magFilter": 9729,
      "minFilter": 9987,
      "wrapS": 10497,
      "wrapT": 10497
    }
  ],
  "scene": 0,
  "scenes": [
    {
      "name": "FAB converted",
      "nodes": [
        0
      ]
    }
  ],
  "textures": [
    {
      "sampler": 0,
      "source": 0
    },
    {
      "sampler": 0,
      "source": 1
    },
    {
      "sampler": 0,
      "source": 2
    }
  ]
}
