{
  "accessors": [
    {
      "bufferView": 3,
      "componentType": 5126,
      "count": 23078,
      "max": [
        0.9892772436141968,
        1.9895542860031128,
        0.2102399468421936
      ],
      "min": [
        -0.9892773032188416,
        0.00013944214151706547,
        -0.12176545709371567
      ],
      "type": "VEC3"
    },
    {
      "bufferView": 3,
      "byteOffset": 276936,
      "componentType": 5126,
      "count": 23078,
      "max": [
        1.0,
        1.0,
        1.0
      ],
      "min": [
        -1.0,
        -1.0,
        -1.0
      ],
      "type": "VEC3"
    },
    {
      "bufferView": 4,
      "componentType": 5126,
      "count": 23078,
      "max": [
        1.0,
        0.9999980330467224,
        1.0,
        1.0
      ],
      "min": [
        -1.0,
        -1.0,
        -0.9999989867210388,
        -1.0
      ],
      "type": "VEC4"
    },
    {
      "bufferView": 2,
      "componentType": 5126,
      "count": 23078,
      "max": [
        0.9993367195129395,
        0.9940192103385925
      ],
      "min": [
        -0.00027745962142944336,
        3.127381205558777e-05
      ],
      "type": "VEC2"
    },
    {
      "bufferView": 1,
      "componentType": 5125,
      "count": 126720,
      "type": "SCALAR"
    },
    {
      "bufferView": 5,
      "componentType": 5126,
      "count": 23,
      "max": [
        100.0,
        1.0000001192092896,
        1.5720448800493614e-06,
        0.0,
        0.1252484917640686,
        100.00000762939453,
        1.000000238418579,
        0.0,
        1.0000001192092896,
        1.000000238418579,
        100.00000762939453,
        0.0,
        0.18458469212055206,
        0.8981083035469055,
        5.473471560435428e-07,
        1.0
      ],
      "min": [
        -1.0000039339065552,
        -1.0,
        -3.2494135666638613e-06,
        0.0,
        -0.12657654285430908,
        -0.9993507266044617,
        -1.6858547269293922e-07,
        0.0,
        -1.0000001192092896,
        -1.4144363547075045e-07,
        -5.936348200872662e-22,
        0.0,
        -0.18387451767921448,
        -1.6440972089767456,
        -1.4868494272232056,
        1.0
      ],
      "type": "MAT4"
    },
    {
      "bufferView": 0,
      "componentType": 5123,
      "count": 23078,
      "type": "VEC4"
    },
    {
      "bufferView": 4,
      "byteOffset": 369248,
      "componentType": 5126,
      "count": 23078,
      "max": [
        1.0,
        0.0,
        0.0,
        0.0
      ],
      "min": [
        1.0,
        0.0,
        0.0,
        0.0
      ],
      "type": "VEC4"
    }
  ],
  "asset": {
    "extras": {
      "author": "madeofmesh (https://sketchfab.com/madeofmesh)",
      "license": "CC-BY-4.0 (http://creativecommons.org/licenses/by/4.0/)",
      "source": "https://sketchfab.com/3d-models/wooden-mannequin-lay-figure-rigged-f119f296833e4d4d9a8fc24dfc0533d6",
      "title": "Wooden Mannequin (Lay Figure) - Rigged"
    },
    "generator": "Sketchfab-14.7.0",
    "version": "2.0"
  },
  "bufferViews": [
    {
      "buffer": 0,
      "byteLength": 184624,
      "byteStride": 8,
      "name": "shortBufferViews",
      "target": 34962
    },
    {
      "buffer": 0,
      "byteLength": 506880,
      "byteOffset": 184624,
      "name": "floatBufferViews",
      "target": 34963
    },
    {
      "buffer": 0,
      "byteLength": 184624,
      "byteOffset": 691504,
      "byteStride": 8,
      "name": "floatBufferViews",
      "target": 34962
    },
    {
      "buffer": 0,
      "byteLength": 553872,
      "byteOffset": 876128,
      "byteStride": 12,
      "name": "floatBufferViews",
      "target": 34962
    },
    {
      "buffer": 0,
      "byteLength": 738496,
      "byteOffset": 1430000,
      "byteStride": 16,
      "name": "floatBufferViews",
      "target": 34962
    },
    {
      "buffer": 0,
      "byteLength": 1472,
      "byteOffset": 2168496,
      "name": "floatBufferViews"
    }
  ],
  "buffers": [
    {
      "byteLength": 2169968,
      "uri": "scene.bin"
    }
  ],
  "images": [
    {
      "uri": "textures/lay_figure_material_baseColor.png"
    },
    {
      "uri": "textures/lay_figure_material_metallicRoughness.png"
    },
    {
      "uri": "textures/lay_figure_material_emissive.png"
    },
    {
      "uri": "textures/lay_figure_material_normal.png"
    }
  ],
  "materials": [
    {
      "doubleSided": true,
      "emissiveFactor": [
        1.0,
        1.0,
        1.0
      ],
      "emissiveTexture": {
        "index": 2
      },
      "name": "lay_figure_material",
      "normalTexture": {
        "index": 3
      },
      "pbrMetallicRoughness": {
        "baseColorTexture": {
          "index": 0
        },
        "metallicRoughnessTexture": {
          "index": 1
        }
      }
    }
  ],
  "meshes": [
    {
      "name": "lay_figure_lay_figure_material_0",
      "primitives": [
        {
          "attributes": {
            "JOINTS_0": 6,
            "NORMAL": 1,
            "POSITION": 0,
            "TANGENT": 2,
            "TEXCOORD_0": 3,
            "TEXCOORD_1": 3,
            "TEXCOORD_2": 3,
            "WEIGHTS_0": 7
          },
          "indices": 4,
          "material": 0,
          "mode": 4
        }
      ]
    }
  ],
  "nodes": [
    {
      "children": [
        1
      ],
      "matrix": [
        2.3291568756103516,
        0.0,
        0.0,
        0.0,
        0.0,
        5.171767182533208e-16,
        -2.3291568756103516,
        0.0,
        0.0,
        2.3291568756103516,
        5.171767182533208e-16,
        0.0,
        0.0,
        0.0,
        0.0,
        1.0
      ],
      "name": "Sketchfab_model"
    },
    {
      "children": [
        2
      ],
      "matrix": [
        0.009999999776482582,
        0.0,
        0.0,
        0.0,
        0.0,
        0.0,
        0.009999999776482582,
        0.0,
        0.0,
        -0.009999999776482582,
        0.0,
        0.0,
        0.0,
        0.0,
        0.0,
        1.0
      ],
      "name": "fbx_merge.fbx"
    },
    {
      "children": [
        3
      ],
      "name": "Object_2"
    },
    {
      "children": [
        4,
        5
      ],
      "name": "RootNode"
    },
    {
      "name": "lay_figure",
      "rotation": [
        -0.7071068286895752,
        0.0,
        0.0,
        0.7071067094802856
      ],
      "scale": [
        100.0,
        100.0,
        100.0
      ]
    },
    {
      "children": [
        6
      ],
      "name": "lay_figure_armature",
      "rotation": [
        -0.7071068286895752,
        0.0,
        0.0,
        0.7071067094802856
      ],
      "scale": [
        100.0,
        100.0,
        100.0
      ],
      "translation": [
        0.0,
        97.26347351074219,
        0.0
      ]
    },
    {
      "children": [
        7,
        9,
        8
      ],
      "name": "Object_6"
    },
    {
      "children": [
        10
      ],
      "name": "_rootJoint"
    },
    {
      "matrix": [
        100.0,
        0.0,
        0.0,
        0.0,
        0.0,
        6.123234258517405e-15,
        -100.00000429153351,
        0.0,
        0.0,
        100.00000429153351,
        6.123234258517405e-15,
        0.0,
        0.0,
        -4.261895369950253e-06,
        0.0,
        1.0
      ],
      "name": "Object_8"
    },
    {
      "mesh": 0,
      "name": "Object_9",
      "skin": 0
    },
    {
      "children": [
        11,
        22,
        27
      ],
      "name": "waist_00",
      "rotation": [
        0.7071068286895752,
        0.0,
        0.0,
        0.7071067094802856
      ],
      "scale": [
        1.0,
        0.9999999403953552,
        0.9999999403953552
      ]
    },
    {
      "children": [
        12,
        14,
        18
      ],
      "name": "body_01",
      "rotation": [
        -3.552713678800501e-15,
        -0.0,
        0.0,
        1.0
      ],
      "translation": [
        0.0,
        0.24716399610042572,
        0.0
      ]
    },
    {
      "children": [
        13
      ],
      "name": "head_02",
      "rotation": [
        -3.552713678800501e-15,
        -0.0,
        0.0,
        1.0
      ],
      "translation": [
        0.0,
        0.42429855465888977,
        0.0
      ]
    },
    {
      "name": "head_end_017",
      "translation": [
        0.0,
        0.22041594982147217,
        -3.1554436208840472e-30
      ]
    },
    {
      "children": [
        15
      ],
      "name": "l_shoulder_03",
      "rotation": [
        0.5000000596046448,
        0.4999999403953552,
        0.5,
        -0.4999999701976776
      ],
      "translation": [
        0.15750715136528015,
        0.26705071330070496,
        0.0
      ]
    },
    {
      "children": [
        16
      ],
      "name": "l_forearm_04",
      "rotation": [
        4.621903700392794e-24,
        -3.774894707930798e-08,
        1.744719967044135e-31,
        1.0
      ],
      "scale": [
        1.0,
        0.9999999403953552,
        1.0
      ],
      "translation": [
        3.552713678800501e-15,
        0.36770516633987427,
        0.0
      ]
    },
    {
      "children": [
        17
      ],
      "name": "l_hand_05",
      "rotation": [
        1.5825623904675012e-06,
        2.2978179003985133e-06,
        3.6364401073685215e-12,
        1.0
      ],
      "translation": [
        -2.6469779601696886e-23,
        0.29733169078826904,
        5.960464477539063e-08
      ]
    },
    {
      "name": "l_hand_end_018",
      "rotation": [
        1.810208837977008e-22,
        4.235164736271502e-22,
        -6.617444900424222e-24,
        1.0
      ],
      "translation": [
        8.470329472543003e-22,
        0.11299014091491699,
        -2.220446049250313e-16
      ]
    },
    {
      "children": [
        19
      ],
      "name": "r_shoulder_06",
      "rotation": [
        -0.5000000596046448,
        0.4999999403953552,
        0.4999999701976776,
        0.5000000596046448
      ],
      "translation": [
        -0.15963467955589294,
        0.26705071330070496,
        3.072192100717075e-08
      ]
    },
    {
      "children": [
        20
      ],
      "name": "r_forearm_07",
      "rotation": [
        6.778768677975907e-15,
        6.199994118105678e-08,
        -2.7102728950012533e-09,
        1.0
      ],
      "translation": [
        3.7894540838578905e-09,
        0.3653978705406189,
        4.884981308350689e-15
      ]
    },
    {
      "children": [
        21
      ],
      "name": "r_hand_08",
      "rotation": [
        -3.4030798029538716e-15,
        1.7763564158837768e-15,
        8.336986212498232e-09,
        1.0
      ],
      "translation": [
        3.520773006471245e-09,
        0.29745209217071533,
        5.960463766996327e-08
      ]
    },
    {
      "name": "r_hand_end_019",
      "rotation": [
        -5.54989205916311e-24,
        -0.0,
        0.0,
        1.0
      ],
      "translation": [
        -7.940933880509066e-23,
        0.11427366733551025,
        0.0
      ]
    },
    {
      "children": [
        23
      ],
      "name": "l_thigh_09",
      "rotation": [
        -5.73853867535945e-07,
        -4.7997936292176746e-08,
        0.9979872107505798,
        -0.06341557949781418
      ],
      "scale": [
        0.9999961853027344,
        1.0,
        1.0
      ],
      "translation": [
        0.06950535625219345,
        -0.05905214324593544,
        -4.062982839059259e-08
      ]
    },
    {
      "children": [
        24
      ],
      "name": "l_shin_010",
      "rotation": [
        5.820222881425252e-08,
        4.84505335407448e-07,
        -0.03304952383041382,
        0.9994537234306335
      ],
      "scale": [
        0.9999998807907104,
        0.9999999403953552,
        1.0
      ],
      "translation": [
        -0.0024458542466163635,
        0.41077637672424316,
        -5.107159495310043e-08
      ]
    },
    {
      "children": [
        25
      ],
      "name": "l_ankle_011",
      "rotation": [
        3.594733399836514e-08,
        2.904380380641669e-07,
        -0.012281222268939018,
        0.9999246001243591
      ],
      "scale": [
        1.0,
        0.9999999403953552,
        1.0
      ],
      "translation": [
        -0.0010572411119937897,
        0.4173223674297333,
        -3.040281626454089e-08
      ]
    },
    {
      "children": [
        26
      ],
      "name": "l_foot_012",
      "rotation": [
        0.7069907188415527,
        -0.012813816778361797,
        -0.01281190849840641,
        0.706990659236908
      ],
      "translation": [
        -7.450222661020689e-09,
        0.06181751936674118,
        2.842170943040401e-14
      ]
    },
    {
      "name": "l_foot_end_020",
      "rotation": [
        6.617444900424222e-24,
        -5.768431773458297e-23,
        -2.0679515313825692e-25,
        1.0
      ],
      "translation": [
        0.0,
        0.15954901278018951,
        -6.938893903907228e-18
      ]
    },
    {
      "children": [
        28
      ],
      "name": "r_thigh_013",
      "rotation": [
        -3.780667725550302e-07,
        1.2162951534833155e-08,
        0.9980294108390808,
        0.06274957954883575
      ],
      "scale": [
        1.0000176429748535,
        1.0000001192092896,
        1.0
      ],
      "translation": [
        -0.06994105875492096,
        -0.05856804922223091,
        -4.056478530856111e-08
      ]
    },
    {
      "children": [
        29
      ],
      "name": "r_shin_014",
      "rotation": [
        -4.167523570686171e-08,
        7.307568239411921e-07,
        0.030868232250213623,
        0.9995234608650208
      ],
      "scale": [
        0.9999999403953552,
        1.0,
        0.9999999403953552
      ],
      "translation": [
        0.0013079270720481873,
        0.4112512171268463,
        -4.728604707793238e-08
      ]
    },
    {
      "children": [
        30
      ],
      "name": "r_ankle_015",
      "rotation": [
        -2.823676759078353e-08,
        2.6695167321122426e-07,
        0.013897452503442764,
        0.9999034404754639
      ],
      "scale": [
        1.0,
        1.0,
        0.9999999403953552
      ],
      "translation": [
        0.0009797997772693634,
        0.4171973764896393,
        -2.5988605045768054e-08
      ]
    },
    {
      "children": [
        31
      ],
      "name": "r_foot_016",
      "rotation": [
        0.7069920301437378,
        0.012740077450871468,
        0.012742025777697563,
        0.7069920301437378
      ],
      "scale": [
        1.0,
        0.9999999403953552,
        1.0
      ],
      "translation": [
        3.72565667206004e-09,
        0.062165744602680206,
        1.4210854715202004e-14
      ]
    },
    {
      "name": "r_foot_end_021",
      "rotation": [
        -0.0,
        2.6245952626070545e-22,
        2.0679515313825692e-25,
        1.0
      ],
      "translation": [
        0.0,
        0.15954901278018951,
        0.0
      ]
    }
  ],
  "samplers": [
    {
      "magFilter": 9729,
      "minFilter": 9987,
      "wrapS": 10497,
      "wrapT": 10497
    }
  ],
  "scene": 0,
  "scenes": [
    {
      "name": "Sketchfab_Scene",
      "nodes": [
        0
      ]
    }
  ],
  "skins": [
    {
      "inverseBindMatrices": 5,
      "joints": [
        7,
        10,
        11,
        12,
        13,
        14,
        15,
        16,
        17,
        18,
        19,
        20,
        21,
        22,
        23,
        24,
        25,
        26,
        27,
        28,
        29,
        30,
        31
      ],
      "skeleton": 7
    }
  ],
  "textures": [
    {
      "sampler": 0,
      "source": 0
    },
    {
      "sampler": 0,
      "source": 1
    },
    {
      "sampler": 0,
      "source": 2
    },
    {
      "sampler": 0,
      "source": 3
    }
  ]
}
